<?xml version="1.0" encoding="iso-8859-1"?>
<svg version="1.1" id="Layer_1" xmlns="http://www.w3.org/2000/svg" xmlns:xlink="http://www.w3.org/1999/xlink" x="0px" y="0px"
	 viewBox="0 0 512 512" style="enable-background:new 0 0 512 512;" xml:space="preserve" width="100px" height="100px">
<g>
	<g>
		<g>
			<path d="M498.534,392.533h-3.601V102.4c0-18.825-15.309-34.133-34.133-34.133H51.2c-18.825,0-34.133,15.309-34.133,34.133
				v290.133h-3.601C6.042,392.533,0,398.575,0,405.999v24.269c0,7.424,6.042,13.466,13.466,13.466h485.069
				c7.424,0,13.466-6.042,13.466-13.466v-24.269C512,398.575,505.958,392.533,498.534,392.533z M51.2,110.933
				c0-4.71,3.814-8.533,8.533-8.533h392.533c4.719,0,8.533,3.823,8.533,8.533v256c0,4.71-3.814,8.533-8.533,8.533H59.733
				c-4.719,0-8.533-3.823-8.533-8.533V110.933z M494.933,426.667H17.067V409.6h192.077c3.959,5.265,10.223,8.533,16.99,8.533H294.4
				c6.767,0,13.03-3.268,16.99-8.533h183.543V426.667z"/>
			<path d="M341.333,213.333c-9.412,0-17.067,7.654-17.067,17.067v17.067c0,9.412,7.654,17.067,17.067,17.067
				c9.412,0,17.067-7.654,17.067-17.067V230.4C358.4,220.988,350.746,213.333,341.333,213.333z"/>
			<path d="M443.733,119.467H68.267V358.4h375.467V119.467z M162.133,230.4h8.533h8.533c14.114,0,25.6,11.486,25.6,25.6
				s-11.486,25.6-25.6,25.6h-13.534c-10.061,0-19.516-3.917-26.633-11.025c-3.337-3.337-3.337-8.738,0-12.075
				c3.336-3.336,8.73-3.328,12.066-0.008c3.891,3.9,9.071,6.042,14.566,6.042H179.2c4.71,0,8.533-3.831,8.533-8.533
				c0-4.702-3.823-8.533-8.533-8.533h-8.533h-8.533c-14.114,0-25.6-11.486-25.6-25.6c0-14.114,11.486-25.6,25.6-25.6h13.534
				c10.061,0,19.516,3.917,26.633,11.025c3.337,3.337,3.337,8.738,0,12.075s-8.73,3.328-12.066,0.009
				c-3.891-3.9-9.071-6.042-14.566-6.042h-13.534c-4.71,0-8.533,3.831-8.533,8.533C153.6,226.569,157.423,230.4,162.133,230.4z
				 M264.533,230.4c4.719,0,8.533,3.823,8.533,8.533s-3.814,8.533-8.533,8.533h-25.6v17.067H281.6c4.719,0,8.533,3.823,8.533,8.533
				c0,4.71-3.814,8.533-8.533,8.533h-51.2c-4.719,0-8.533-3.823-8.533-8.533V204.8c0-4.71,3.814-8.533,8.533-8.533h51.2
				c4.719,0,8.533,3.823,8.533,8.533s-3.814,8.533-8.533,8.533h-42.667V230.4H264.533z M375.467,247.467
				c0,18.825-15.309,34.133-34.133,34.133c-18.825,0-34.133-15.309-34.133-34.133V230.4c0-18.825,15.309-34.133,34.133-34.133
				c18.825,0,34.133,15.309,34.133,34.133V247.467z"/>
		</g>
	</g>
</g>
<g>
</g>
<g>
</g>
<g>
</g>
<g>
</g>
<g>
</g>
<g>
</g>
<g>
</g>
<g>
</g>
<g>
</g>
<g>
</g>
<g>
</g>
<g>
</g>
<g>
</g>
<g>
</g>
<g>
</g>
</svg>
